:SAMPLES-PER-SECOND 30
:FULLY-SPECIFIED
:DEGREES
553
root  -15.3422 34.7083 -8.42914 -169.998 0.0720825 179.711
RightUpLeg  -9.5018 -10.0331 1.73768
RightLeg  5.82492 2.24558 0.0762478
RightFoot  3.64646 0.00430744 0.263313
RightToes  -23.7905 -0.10987 -0.214334
Spine  -2.1887 0.315418 -0.250816
Spine1  -4.44715 0.712677 0.128787
HEad  -66.0892 -0.68138 6.31703
LeftShoulder1  -1.94126e-019 -3.10601e-018 -2.51263e-017
LeftArm  -11.0391 24.681 -82.6295
LeftForeArm  31.2289 -17.4066 -2.83627
LeftHand  -0.488502 -2.50564 7.39754
RightShoulder  -4.96962e-017 0 -2.36833e-017
RightArm  -21.5904 -23.2263 79.5241
RightForeArm  54.5639 14.9161 1.16097
RightHand  -0.501139 -0.585996 -12.1527
LeftUpLeg  -9.52634 -5.79725 -0.930401
LeftLeg  6.97543 13.122 0.750585
LeftFoot  2.73889 -0.017721 0.791735
LeftToes  -14.838 1.31424e-006 1.14295e-007
554
root  -15.3415 34.7086 -8.43296 -169.992 0.0871124 179.712
RightUpLeg  -9.50306 -10.0402 1.73875
RightLeg  5.81897 2.26471 0.0739232
RightFoot  3.64508 0.00429062 0.263553
RightToes  -23.8413 -0.10987 -0.214334
Spine  -2.18831 0.316363 -0.252522
Spine1  -4.4428 0.712821 0.126063
HEad  -66.0973 -0.660555 6.28475
LeftShoulder1  -1.94126e-019 -3.10601e-018 -2.51263e-017
LeftArm  -11.0287 24.711 -82.6277
LeftForeArm  31.1743 -17.42 -2.83831
LeftHand  -0.48538 -2.49319 7.36238
RightShoulder  -4.96962e-017 0 -2.36833e-017
RightArm  -21.5916 -23.228 79.5308
RightForeArm  54.5658 14.9184 1.16043
RightHand  -0.502582 -0.590399 -12.1155
LeftUpLeg  -9.52631 -5.81581 -0.931451
LeftLeg  6.97406 13.1443 0.74849
LeftFoot  2.72876 -0.0177243 0.791786
LeftToes  -14.8344 1.31424e-006 1.14295e-007
555
root  -15.341 34.7091 -8.4346 -169.985 0.0914917 179.713
RightUpLeg  -9.50404 -10.0467 1.74007
RightLeg  5.80771 2.27004 0.0735769
RightFoot  3.64284 0.00427699 0.263748
RightToes  -23.757 -0.10987 -0.214334
Spine  -2.18793 0.317284 -0.255553
Spine1  -4.44 0.713065 0.12094
HEad  -66.123 -0.67403 6.32777
LeftShoulder1  -1.94126e-019 -3.10601e-018 -2.51263e-017
LeftArm  -10.9533 24.7216 -82.6166
LeftForeArm  31.1453 -17.4421 -2.84243
LeftHand  -0.472952 -2.35535 7.2973
RightShoulder  -4.96962e-017 0 -2.36833e-017
RightArm  -21.5575 -23.2317 79.5298
RightForeArm  54.5566 14.9085 1.16293
RightHand  -0.500558 -0.556503 -12.1792
LeftUpLeg  -9.52638 -5.82157 -0.931252
LeftLeg  6.96767 13.1558 0.747678
LeftFoot  2.73679 -0.0177387 0.79201
LeftToes  -14.7853 1.31424e-006 1.14295e-007
556
root  -15.3406 34.7099 -8.43623 -169.98 0.098938 179.714
RightUpLeg  -9.50455 -10.0491 1.74349
RightLeg  5.7869 2.28916 0.0714077
RightFoot  3.66488 0.00423881 0.264294
RightToes  -23.8204 -0.10987 -0.214334
Spine  -2.18758 0.318165 -0.261787
Spine1  -4.44013 0.713474 0.109318
HEad  -66.1394 -0.725581 6.39974
LeftShoulder1  -1.94126e-019 -3.10601e-018 -2.51263e-017
LeftArm  -10.8999 24.7263 -82.5917
LeftForeArm  31.1381 -17.4496 -2.84442
LeftHand  -0.463767 -2.26138 7.24077
RightShoulder  -4.96962e-017 0 -2.36833e-017
RightArm  -21.5021 -23.2375 79.5315
RightForeArm  54.555 14.8947 1.16635
RightHand  -0.502227 -0.560241 -12.1356
LeftUpLeg  -9.52638 -5.83233 -0.92641
LeftLeg  6.94772 13.1742 0.747785
LeftFoot  2.74612 -0.0177651 0.79242
LeftToes  -14.8296 1.31424e-006 1.14295e-007
557
root  -15.3401 34.7108 -8.43842 -169.972 0.121552 179.715
RightUpLeg  -9.50459 -10.0224 1.74738
RightLeg  5.78994 2.28994 0.071816
RightFoot  3.65979 0.00419251 0.264955
RightToes  -23.7619 -0.10987 -0.214334
Spine  -2.18728 0.31899 -0.266633
Spine1  -4.44112 0.71411 0.0997078
HEad  -66.1467 -0.768026 6.43673
LeftShoulder1  -1.94126e-019 -3.10601e-018 -2.51263e-017
LeftArm  -10.8632 24.7455 -82.5545
LeftForeArm  31.1833 -17.4539 -2.84292
LeftHand  -0.465349 -2.3431 7.26632
RightShoulder  -4.96962e-017 0 -2.36833e-017
RightArm  -21.4352 -23.2431 79.5334
RightForeArm  54.5703 14.8962 1.16605
RightHand  -0.503271 -0.567809 -12.1086
LeftUpLeg  -9.52625 -5.84467 -0.921935
LeftLeg  6.94455 13.2117 0.745707
LeftFoot  2.73819 -0.0178042 0.793028
LeftToes  -14.7969 1.31424e-006 1.14295e-007
558
root  -15.3397 34.712 -8.4398 -169.972 0.121552 179.716
RightUpLeg  -9.50325 -10.0225 1.74899
RightLeg  5.78994 2.29001 0.07237
RightFoot  3.65979 0.00413953 0.265712
RightToes  -23.7619 -0.10987 -0.214334
Spine  -2.18706 0.319743 -0.269103
Spine1  -4.44112 0.715036 0.0997078
HEad  -66.1467 -0.768026 6.43673
LeftShoulder1  -1.94126e-019 -3.10601e-018 -2.51263e-017
LeftArm  -10.8632 24.7455 -82.5545
LeftForeArm  31.1833 -17.4537 -2.84212
LeftHand  -0.470177 -2.3431 7.26632
RightShoulder  -4.96962e-017 0 -2.36833e-017
RightArm  -21.4352 -23.2431 79.5334
RightForeArm  54.5703 14.8963 1.16641
RightHand  -0.503271 -0.567809 -12.1086
LeftUpLeg  -9.52625 -5.84467 -0.921966
LeftLeg  6.94455 13.2117 0.745504
LeftFoot  2.73819 -0.0178569 0.793848
LeftToes  -14.7969 1.31424e-006 1.14295e-007
